<svg width="14" height="17" viewBox="0 0 14 17" fill="none" xmlns="http://www.w3.org/2000/svg">
<path d="M5.78397 0.0613187C5.12333 0.56707 0.71875 4.15805 0.71875 9.99959C0.71875 10.9188 0.889626 11.8291 1.22162 12.6784C1.55362 13.5277 2.04023 14.2993 2.65368 14.9493C3.26712 15.5993 3.99539 16.115 4.7969 16.4667C5.57524 16.8084 6.40785 16.989 7.24981 16.9991C5.19964 16.9567 3.55 15.1824 3.55 12.9999C3.55 12.8024 3.56351 12.6082 3.58961 12.4184C3.59072 12.4071 3.59208 12.3957 3.59367 12.3843C3.91023 10.1305 5.86718 8.2171 6.81355 7.41014C7.11595 7.15228 7.53418 7.15228 7.83657 7.41015C8.78291 8.21712 10.7398 10.1305 11.0563 12.3843C11.0579 12.3957 11.0593 12.4071 11.0604 12.4184C11.0865 12.6082 11.1 12.8024 11.1 12.9999C11.1 15.1824 9.45036 16.9567 7.40019 16.9991C8.24215 16.989 9.07476 16.8084 9.8531 16.4667C10.6546 16.115 11.3829 15.5993 11.9963 14.9493C12.6098 14.2993 13.0964 13.5277 13.4284 12.6784C13.7491 11.8579 13.9195 10.9804 13.9307 10.093C13.9311 10.0815 13.9312 10.07 13.9312 10.0584L13.9312 10.0268L13.9312 9.99968C13.9063 5.75902 11.1985 3.4446 10.7049 3.05781C10.6586 3.02155 10.5971 3.02196 10.5508 3.05823C10.3529 3.21337 9.8015 3.67639 9.20939 4.44729C9.14186 4.53521 9.00914 4.5184 8.96344 4.41591C7.85098 1.92135 6.30982 0.40726 5.94577 0.0710177C5.8988 0.0276381 5.83447 0.0226554 5.78397 0.0613187Z" fill="white"/>
</svg>
