<svg width="21" height="23" viewBox="0 0 21 23" fill="none" xmlns="http://www.w3.org/2000/svg">
<path d="M13.875 17.125V18.25C13.875 20.114 12.364 21.625 10.5 21.625C8.63604 21.625 7.125 20.114 7.125 18.25V17.125M13.875 17.125H7.125M13.875 17.125H17.9143C18.3447 17.125 18.5609 17.125 18.7351 17.0662C19.0679 16.954 19.3284 16.6926 19.4407 16.3598C19.4997 16.1848 19.4997 15.9679 19.4997 15.5342C19.4997 15.3444 19.4995 15.2495 19.4846 15.159C19.4566 14.988 19.3902 14.8259 19.2891 14.6851C19.2357 14.6107 19.1678 14.5429 19.034 14.4091L18.5958 13.9708C18.4544 13.8294 18.375 13.6377 18.375 13.4377V9.25C18.375 4.90075 14.8492 1.37499 10.5 1.375C6.15077 1.37501 2.625 4.90077 2.625 9.25V13.4377C2.625 13.6377 2.5454 13.8294 2.40401 13.9708L1.96582 14.409C1.8316 14.5432 1.76442 14.6107 1.71094 14.6852C1.60986 14.8259 1.54291 14.988 1.51485 15.159C1.5 15.2495 1.5 15.3444 1.5 15.5342C1.5 15.9679 1.5 16.1848 1.55901 16.3597C1.67128 16.6926 1.9329 16.954 2.26575 17.0662C2.44 17.125 2.65539 17.125 3.08575 17.125H7.125" stroke="white" stroke-width="2" stroke-linecap="round" stroke-linejoin="round"/>
</svg>
